{
  "accessors": [
    {
      "bufferView": 2,
      "componentType": 5126,
      "count": 3063,
      "max": [
        170.12796020507813,
        40.981239318847656,
        263.94488525390625
      ],
      "min": [
        -170.1060333251953,
        -58.65981674194336,
        -4.830480098724365
      ],
      "type": "VEC3"
    },
    {
      "bufferView": 2,
      "byteOffset": 36756,
      "componentType": 5126,
      "count": 3063,
      "max": [
        0.9998984932899475,
        0.9997113347053528,
        0.9987984895706177
      ],
      "min": [
        -0.9998984932899475,
        -0.9999529719352722,
        -1.0
      ],
      "type": "VEC3"
    },
    {
      "bufferView": 3,
      "componentType": 5126,
      "count": 3063,
      "max": [
        0.9998372197151184,
        0.9999486804008484,
        0.9996370077133179,
        1.0
      ],
      "min": [
        -0.9998372197151184,
        -0.9996641278266907,
        -0.9994568228721619,
        -1.0
      ],
      "type": "VEC4"
    },
    {
      "bufferView": 1,
      "componentType": 5126,
      "count": 3063,
      "max": [
        0.9941409826278687,
        0.997094988822937
      ],
      "min": [
        0.0025100000202655792,
        0.004883000161498785
      ],
      "type": "VEC2"
    },
    {
      "bufferView": 0,
      "componentType": 5125,
      "count": 13926,
      "type": "SCALAR"
    }
  ],
  "asset": {
    "extras": {
      "author": "Tigerar1 (https://sketchfab.com/allanromanreyes)",
      "license": "SKETCHFAB Standard (https://sketchfab.com/licenses)",
      "source": "https://sketchfab.com/3d-models/gorilla-d10d82d158564086863282e5354e0417",
      "title": "Gorilla"
    },
    "generator": "Sketchfab-16.8.0",
    "version": "2.0"
  },
  "bufferViews": [
    {
      "buffer": 0,
      "byteLength": 55704,
      "name": "floatBufferViews",
      "target": 34963
    },
    {
      "buffer": 0,
      "byteLength": 24504,
      "byteOffset": 55704,
      "byteStride": 8,
      "name": "floatBufferViews",
      "target": 34962
    },
    {
      "buffer": 0,
      "byteLength": 73512,
      "byteOffset": 80208,
      "byteStride": 12,
      "name": "floatBufferViews",
      "target": 34962
    },
    {
      "buffer": 0,
      "byteLength": 49008,
      "byteOffset": 153720,
      "byteStride": 16,
      "name": "floatBufferViews",
      "target": 34962
    }
  ],
  "buffers": [
    {
      "byteLength": 202728,
      "uri": "scene.bin"
    }
  ],
  "images": [
    {
      "uri": "textures/TGorilla_Diffuse.png_baseColor.png"
    },
    {
      "uri": "textures/TGorilla_Diffuse.png_normal.png"
    }
  ],
  "materials": [
    {
      "doubleSided": true,
      "name": "TGorilla_Diffuse.png",
      "normalTexture": {
        "index": 1
      },
      "pbrMetallicRoughness": {
        "baseColorTexture": {
          "index": 0
        },
        "metallicFactor": 0.0
      }
    }
  ],
  "meshes": [
    {
      "name": "Object_0",
      "primitives": [
        {
          "attributes": {
            "NORMAL": 1,
            "POSITION": 0,
            "TANGENT": 2,
            "TEXCOORD_0": 3
          },
          "indices": 4,
          "material": 0,
          "mode": 4
        }
      ]
    }
  ],
  "nodes": [
    {
      "children": [
        1
      ],
      "matrix": [
        1.0,
        0.0,
        0.0,
        0.0,
        0.0,
        2.220446049250313e-16,
        -1.0,
        0.0,
        0.0,
        1.0,
        2.220446049250313e-16,
        0.0,
        0.0,
        0.0,
        0.0,
        1.0
      ],
      "name": "Sketchfab_model"
    },
    {
      "children": [
        2
      ],
      "name": "Gorilla.obj.cleaner.materialmerger.gles"
    },
    {
      "mesh": 0,
      "name": "Object_2"
    }
  ],
  "samplers": [
    {
      "magFilter": 9729,
      "minFilter": 9987,
      "wrapS": 10497,
      "wrapT": 10497
    }
  ],
  "scene": 0,
  "scenes": [
    {
      "name": "Sketchfab_Scene",
      "nodes": [
        0
      ]
    }
  ],
  "textures": [
    {
      "sampler": 0,
      "source": 0
    },
    {
      "sampler": 0,
      "source": 1
    }
  ]
}
