{
  "accessors": [
    {
      "bufferView": 2,
      "componentType": 5126,
      "count": 1550,
      "max": [
        0.9707329869270325,
        0.34563401341438293,
        3.6834490299224854
      ],
      "min": [
        -0.9707340002059937,
        -0.31560999155044556,
        -0.00039900001138448715
      ],
      "type": "VEC3"
    },
    {
      "bufferView": 2,
      "byteOffset": 18600,
      "componentType": 5126,
      "count": 1550,
      "max": [
        0.9999843835830688,
        0.999265193939209,
        0.9317697882652283
      ],
      "min": [
        -0.9999843835830688,
        -0.985293984413147,
        -0.999110758304596
      ],
      "type": "VEC3"
    },
    {
      "bufferView": 1,
      "componentType": 5126,
      "count": 1550,
      "max": [
        1.0,
        1.0
      ],
      "min": [
        0.0,
        0.0
      ],
      "type": "VEC2"
    },
    {
      "bufferView": 0,
      "componentType": 5125,
      "count": 2274,
      "type": "SCALAR"
    }
  ],
  "asset": {
    "extras": {
      "author": "Godough (https://sketchfab.com/Godough)",
      "license": "SKETCHFAB Standard (https://sketchfab.com/licenses)",
      "source": "https://sketchfab.com/3d-models/low-poly-human-template-14b4607ec2e54411a315d093cee7d42b",
      "title": "Low Poly Human Template"
    },
    "generator": "Sketchfab-16.63.0",
    "version": "2.0"
  },
  "bufferViews": [
    {
      "buffer": 0,
      "byteLength": 9096,
      "name": "floatBufferViews",
      "target": 34963
    },
    {
      "buffer": 0,
      "byteLength": 12400,
      "byteOffset": 9096,
      "byteStride": 8,
      "name": "floatBufferViews",
      "target": 34962
    },
    {
      "buffer": 0,
      "byteLength": 37200,
      "byteOffset": 21496,
      "byteStride": 12,
      "name": "floatBufferViews",
      "target": 34962
    }
  ],
  "buffers": [
    {
      "byteLength": 58696,
      "uri": "scene.bin"
    }
  ],
  "materials": [
    {
      "doubleSided": true,
      "name": "material_0",
      "pbrMetallicRoughness": {
        "metallicFactor": 0.0,
        "roughnessFactor": 0.6
      }
    }
  ],
  "meshes": [
    {
      "name": "Object_0",
      "primitives": [
        {
          "attributes": {
            "NORMAL": 1,
            "POSITION": 0,
            "TEXCOORD_0": 2
          },
          "indices": 3,
          "material": 0,
          "mode": 4
        }
      ]
    }
  ],
  "nodes": [
    {
      "children": [
        1
      ],
      "matrix": [
        1.0,
        0.0,
        0.0,
        0.0,
        0.0,
        2.220446049250313e-16,
        -1.0,
        0.0,
        0.0,
        1.0,
        2.220446049250313e-16,
        0.0,
        0.0,
        0.0,
        0.0,
        1.0
      ],
      "name": "Sketchfab_model"
    },
    {
      "children": [
        2
      ],
      "name": "e9e7c40869f54023b849ba4d76e12e41.obj.cleaner.materialmerger.gles"
    },
    {
      "mesh": 0,
      "name": "Object_2"
    }
  ],
  "scene": 0,
  "scenes": [
    {
      "name": "Sketchfab_Scene",
      "nodes": [
        0
      ]
    }
  ]
}
